<?xml version="1.0" standalone="no"?><!DOCTYPE svg PUBLIC "-//W3C//DTD SVG 1.1//EN" "http://www.w3.org/Graphics/SVG/1.1/DTD/svg11.dtd"><svg t="1582968679671" class="icon" viewBox="0 0 1024 1024" version="1.1" xmlns="http://www.w3.org/2000/svg" p-id="6859" xmlns:xlink="http://www.w3.org/1999/xlink" width="200" height="200"><defs><style type="text/css"></style></defs><path d="M512 148.5l277.1 254.1v472H234.9v-472L512 148.5m0-64c-15.5 0-31 5.6-43.3 16.8L191.6 355.5c-13.2 12.1-20.7 29.2-20.7 47.2v472c0 35.3 28.7 64 64 64h554.2c35.3 0 64-28.7 64-64v-472c0-17.9-7.5-35-20.7-47.2L555.3 101.4C543 90.1 527.5 84.5 512 84.5z" p-id="6860" data-spm-anchor-id="a313x.7781069.0.i19" class="selected" fill="#faa015"></path><path d="M640 757.3H384c-17.7 0-32-14.3-32-32s14.3-32 32-32h256c17.7 0 32 14.3 32 32s-14.3 32-32 32z" fill="#faa015" p-id="6861" data-spm-anchor-id="a313x.7781069.0.i22" class="selected"></path></svg>